<svg xmlns="http://www.w3.org/2000/svg" width="277.62" height="277.62"><defs><linearGradient x1="239.264" y1="5.54" x2="239.264" y2="180.332" gradientUnits="userSpaceOnUse" id="prefix__c"><stop offset="0" stop-color="#fff" stop-opacity="0"/><stop offset="1" stop-color="#fff"/></linearGradient><linearGradient x1="67.766" y1="177.716" x2="242.557" y2="178.523" gradientUnits="userSpaceOnUse" id="prefix__d"><stop offset="0" stop-color="#fff" stop-opacity="0"/><stop offset="1" stop-color="#fff"/></linearGradient><linearGradient x1="243.65" y1="353.531" x2="241.13" y2="178.757" gradientUnits="userSpaceOnUse" id="prefix__e"><stop offset="0" stop-color="#fff" stop-opacity="0"/><stop offset="1" stop-color="#fff"/></linearGradient><linearGradient x1="414.143" y1="177.671" x2="239.375" y2="180.604" gradientUnits="userSpaceOnUse" id="prefix__f"><stop offset="0" stop-color="#fff" stop-opacity="0"/><stop offset="1" stop-color="#fff"/></linearGradient><radialGradient cx="240" cy="180" r="138.81" gradientUnits="userSpaceOnUse" id="prefix__a"><stop offset="0" stop-color="#fff"/><stop offset="1" stop-color="#fff" stop-opacity="0"/></radialGradient><radialGradient cx="142.184" cy="40.646" r=".001" gradientUnits="userSpaceOnUse" id="prefix__b"><stop offset="0" stop-color="#fff"/><stop offset="1" stop-color="#fff" stop-opacity="0"/></radialGradient></defs><g data-paper-data="{&quot;isPaintingLayer&quot;:true}" stroke-miterlimit="10" style="mix-blend-mode:normal"><path d="M101.19 180c0-76.663 62.147-138.81 138.81-138.81 76.663 0 138.81 62.147 138.81 138.81 0 76.663-62.147 138.81-138.81 138.81-76.663 0-138.81-62.147-138.81-138.81z" fill="url(#prefix__a)" transform="translate(-101.19 -41.19)"/><path d="M284.368 81.292z" fill="url(#prefix__b)" transform="translate(-101.19 -41.19)"/><path d="M173.634 60.37s11.803-8.616 28.17-13.815c12.967-4.119 29.912-5.103 38.279-4.93 7.693.16 23.384.189 36.516 3.963 17.472 5.023 31.95 14.118 31.95 14.118l-68.454 120.959z" fill="url(#prefix__c)" transform="translate(-101.19 -41.19)"/><path d="M122.293 243.599s-8.562-11.843-13.685-28.233c-4.06-12.986-4.965-29.936-4.753-38.302.195-7.692.296-23.383 4.132-36.497 5.103-17.45 14.264-31.886 14.264-31.886l120.642 69.013z" fill="url(#prefix__d)" transform="translate(-101.19 -41.19)"/><path d="M308.483 297.76s-11.678 8.786-27.968 14.22c-12.906 4.306-29.836 5.534-38.204 5.481-7.695-.048-23.384.15-36.57-3.436-17.543-4.77-32.15-13.655-32.15-13.655l66.704-121.933z" fill="url(#prefix__e)" transform="translate(-101.19 -41.19)"/><path d="M358.22 112.97s8.812 11.656 14.285 27.934c4.336 12.896 5.605 29.822 5.572 38.19-.031 7.695.204 23.384-3.35 36.578-4.729 17.554-13.58 32.183-13.58 32.183l-122.09-66.415z" fill="url(#prefix__f)" transform="translate(-101.19 -41.19)"/></g></svg>