<svg xmlns="http://www.w3.org/2000/svg" width="389.2" height="85.5"><g fill-rule="evenodd" stroke="#000" stroke-linecap="round" stroke-miterlimit="10" data-paper-data="{&quot;isPaintingLayer&quot;:true}" style="mix-blend-mode:normal"><path stroke-width="17.5" d="M8.8 72V31.4q0-2 1.4-3.4t3.6-1.4q1.8 0 3.2 1.4t1.4 3.4V39q2.8-6 7-9.1t9.5-3.1q5.6 0 8.9 2.5t4.8 8.6T50 54.4v17.5q0 1.9-1.4 3.3t-3.3 1.4q-1.8 0-3.3-1.4t-1.4-3.3V55.4q0-7.7-.8-12t-2-5.7-3.9-1.6q-3 0-6 2.6t-5.6 7.3q-2.3 4-3.2 8t-.9 9.4v8.4q0 2.2-1.2 3.6t-3.5 1.4q-1.9 0-3.3-1.4T8.7 72zm71.7 4.6q-5.7 0-10.5-3T62.5 65t-2.7-11.7q0-7 3.2-13.2t8.6-9.8 11.6-3.7q5.7 0 10.5 3.2t7.5 8.5 2.7 11.4q0 7.2-3.2 13.4T92.1 73t-11.7 3.6zm0-9q3.5 0 6.7-2.4t5-6.4 2-8.5q0-3.8-1.5-7.1t-4.1-5.4-5.7-2q-3.5 0-6.6 2.4t-4.8 6.5-1.8 8.6q0 4.5 1.5 7.7t4 5 5.3 1.7zm38.2 4.4V36.3h-8q-2 0-3.4-1.4t-1.4-3.4q0-2.2 1.5-3.5t3.5-1.4h7.7V16q0-1.9 1.4-3.4t3.4-1.5q2.1 0 3.5 1.5t1.4 3.4v10.7h8.4q2 0 3.5 1.4t1.4 3.5q0 2-1.4 3.4t-3.4 1.4h-8.6V72q0 2-1.3 3.3t-3.5 1.4q-1.9 0-3.3-1.4t-1.4-3.3zm55 .3V71q-4.4 4-11.7 3.2-5.5-.5-9.6-3.7t-6.1-8.3-1.4-11.4q.7-7 4.3-13.2 3.7-6.2 9.5-9.7t12.9-2.9q4.6.5 8.1 2a86 86 0 0 1 7.4 3.9L183 72.3q-.2 2-1.8 3.3-1.5 1.4-3.5 1.2t-3.1-1.4q-1.1-1.3-1-3zm.5-10.3 2.8-26q-2.7-1.5-6.1-1.8-4.3-.4-7.8 1.9-3.6 2.3-5.8 6.4-2.2 4.2-2.7 9-.6 6.1 1.8 9.6 2.3 3.4 7.2 4 2.9.2 5.7-.7 2.9-1 4.9-2.5zM199 72V31.4q0-2 1.5-3.4t3.5-1.4q1.9 0 3.3 1.4t1.3 3.4V39q2.8-6 7.1-9.1t9.4-3.1q5.6 0 8.9 2.5t4.8 8.6 1.5 16.5l-.1 17.5q0 1.9-1.3 3.3t-3.3 1.4q-1.9 0-3.3-1.4t-1.5-3.3V55.4q0-7.7-.7-12t-2.1-5.7-3.8-1.6q-3 0-6 2.6t-5.6 7.3q-2.3 4-3.2 8t-.9 9.4v8.4q0 2.2-1.2 3.6t-3.5 1.4q-1.9 0-3.3-1.4T199 72zm89.8-26.3-26.8 15.4q1.4 3.1 5 4.8t7.9 1.7q5.8 0 9.9-4.2 1.6-1.6 3.3-1.6 2 0 3.4 1.3t1.3 3.2q0 1.6-1.2 3-2.8 3-7.4 5.2t-9.3 2.1q-7.1 0-12.7-3t-8.9-8.7-3.2-13.3q0-6.3 2.9-12.1t8-9.3 11.7-3.4q6.1 0 10.5 2.4t6.5 5.8 2.2 6.1q0 1.3-.8 2.5t-2.3 2.1zm-29.6 7.1L282.1 40a7.6 7.6 0 0 0-3.4-3.2q-2.2-1-5.2-1-5.7 0-9.5 3.9t-4.5 9.6q-.2 1.5-.2 3.6zm43.2 19.3V31.5q0-2 1.5-3.5t3.4-1.4 3.5 1.5 1.4 3.3v3q4.9-8 13.4-8 5.1 0 7.4 2.8t2.2 6.7v3q0 2-1.3 3.4t-3.4 1.4q-2.4 0-3.5-1.4t-1.2-3.4v-1.3q0-1.6-2.2-1.6-1.8 0-4.1 1.8t-3.9 3.8q-2.1 2.5-2.7 5.1t-.7 6.3l-.1 19q0 1.8-1.5 3.2t-3.3 1.4q-1.9 0-3.4-1.4t-1.5-3.2zm69.1-43 .5-15.5q.1-2 1.6-3.4t3.4-1.4q1.9 0 3.4 1.4t1.3 3.6l-1.4 58.3q-.1 2-1.5 3.3t-3.4 1.2q-1.9 0-3.2-1t-1.4-3v-1.8q-2.6 2.4-6.1 4.1a16.9 16.9 0 0 1-7.3 1.6q-5.1 0-9.1-2.6t-6.4-7.8-2.4-12.2q0-8.6 2.7-14.7t7.5-9.2 11.1-3.2q5 0 10.7 2.3zm-.5 29.5.4-19.7q-1.8-1.1-4.6-2.1t-5.4-1q-6.1 0-9.2 4.6t-3.1 13.3q0 7.1 2.5 10.5t6.6 3.4q3.4 0 6.4-1.5t4.6-3.5 1.8-4z"/><path fill="#ff6161" stroke="none" d="M8.8 72V31.4q0-2 1.4-3.4t3.6-1.4q1.8 0 3.2 1.4t1.4 3.4V39q2.8-6 7-9.1t9.5-3.1q5.6 0 8.9 2.5t4.8 8.6T50 54.4v17.5q0 1.9-1.4 3.3t-3.3 1.4q-1.8 0-3.3-1.4t-1.4-3.3V55.4q0-7.7-.8-12t-2-5.7-3.9-1.6q-3 0-6 2.6t-5.6 7.3q-2.3 4-3.2 8t-.9 9.4v8.4q0 2.2-1.2 3.6t-3.5 1.4q-1.9 0-3.3-1.4T8.7 72m71.8 4.6q-5.7 0-10.5-3.2t-7.5-8.4-2.7-11.7q0-7 3.2-13.2t8.6-9.8 11.6-3.7q5.7 0 10.5 3.2t7.5 8.5 2.7 11.4q0 7.2-3.2 13.4T92.1 73t-11.7 3.6m0-9q3.5 0 6.7-2.3t5.1-6.4 2-8.5q0-3.8-1.6-7.2t-4-5.4q-2.7-2-5.7-2-3.6 0-6.6 2.4t-4.8 6.5-1.8 8.7q0 4.5 1.5 7.7t4 4.9 5.3 1.7"/><path fill="#ff5f5f" stroke="none" d="M118.7 72V36.3h-8q-2 0-3.4-1.4t-1.4-3.4q0-2.2 1.5-3.5t3.5-1.4h7.7V16q0-1.9 1.4-3.4t3.4-1.5q2.1 0 3.5 1.5t1.4 3.4v10.7h8.4q2 0 3.5 1.4t1.4 3.5q0 2-1.4 3.4t-3.4 1.4h-8.6V72q0 2-1.3 3.3t-3.5 1.4q-1.9 0-3.3-1.4t-1.4-3.3"/><path fill="#fff" stroke="none" d="m173.6 72.3.2-1.3q-4.5 4-11.8 3.2-5.5-.5-9.6-3.7t-6.1-8.3q-2-5.1-1.4-11.4.7-7 4.3-13.2 3.7-6.2 9.5-9.7 5.8-3.6 12.9-2.9 4.6.5 8.1 2a86 86 0 0 1 7.4 3.9L183 72.3q-.2 2-1.8 3.3-1.5 1.4-3.5 1.2-2-.2-3.1-1.4-1.1-1.3-1-3m.6-10.5L177 36q-2.7-1.5-6.1-1.8-4.3-.4-7.8 1.9-3.6 2.3-5.8 6.4-2.2 4.2-2.7 9-.6 6.1 1.8 9.6 2.3 3.4 7.2 4 2.9.2 5.7-.7 2.9-1 4.9-2.5"/><path fill="#0ff" stroke="none" d="M199.1 72V31.4q0-2 1.5-3.4t3.5-1.4q1.9 0 3.3 1.4t1.3 3.4V39q2.8-6 7.1-9.1t9.4-3.1q5.6 0 8.9 2.5t4.8 8.6 1.5 16.5l-.1 17.5q0 1.9-1.3 3.3t-3.3 1.4q-1.9 0-3.4-1.4t-1.4-3.3V55.4q0-7.7-.7-12-.7-4.1-2.1-5.7-1.4-1.6-3.8-1.6-3 0-6 2.6t-5.6 7.3q-2.3 4-3.2 8t-.9 9.4v8.4q0 2.2-1.2 3.6t-3.5 1.4q-1.9 0-3.3-1.4T199 72"/><path fill="#00f1ff" stroke="none" d="m288.9 45.8-26.8 15.4q1.4 3 5 4.7t7.9 1.7q5.8 0 9.9-4.2 1.6-1.6 3.3-1.6 2 0 3.3 1.3t1.4 3.2q0 1.6-1.2 3-2.8 3-7.5 5.2t-9.2 2.2q-7.1 0-12.8-3.1-5.6-3-8.8-8.7t-3.2-13.3q0-6.3 2.9-12.1t8-9.3 11.7-3.4q6.1 0 10.4 2.4t6.6 5.8 2.2 6.1q0 1.3-.8 2.5t-2.3 2.1m-29.6 7.1L282.1 40a7.6 7.6 0 0 0-3.4-3.2q-2.2-1-5.2-1-5.7 0-9.6 3.9t-4.4 9.6q-.2 1.5-.2 3.6"/><path fill="#00fdff" stroke="none" d="M302.5 72V31.5q0-2 1.4-3.4t3.5-1.4 3.5 1.5 1.4 3.3v3q4.9-8 13.4-8 5.1 0 7.3 2.8t2.3 6.7v3q0 2-1.4 3.4t-3.3 1.4q-2.4 0-3.6-1.4T326 39v-1.3q0-1.6-2.2-1.6-1.8 0-4.2 1.8t-3.8 3.8q-2.1 2.5-2.8 5.1t-.6 6.3l-.1 19q0 1.8-1.5 3.2t-3.3 1.4q-1.9 0-3.4-1.4t-1.5-3.2"/><path fill="#00f1ff" stroke="none" d="m371.6 29.1.5-15.5q.1-2 1.6-3.4t3.4-1.4q1.9 0 3.4 1.4t1.3 3.6l-1.4 58.3q-.1 2-1.5 3.3-1.4 1.2-3.4 1.2-1.9 0-3.2-1t-1.4-3v-1.8q-2.6 2.4-6.1 4.1a16.9 16.9 0 0 1-7.3 1.6q-5.1 0-9.1-2.6t-6.4-7.8-2.4-12.2q0-8.6 2.7-14.7t7.5-9.2 11.1-3.2q5 0 10.7 2.3m-.5 29.5.4-19.7q-1.8-1.2-4.6-2.1t-5.4-1q-6.1 0-9.2 4.6t-3.1 13.2q0 7.2 2.5 10.6t6.6 3.3q3.4 0 6.3-1.4t4.7-3.6q1.7-2 1.8-3.9"/></g></svg>