<svg xmlns="http://www.w3.org/2000/svg" width="94.237" height="94.237"><g data-paper-data="{&quot;isPaintingLayer&quot;:true}" stroke-miterlimit="10" style="mix-blend-mode:normal"><path d="M0 47.118C0 21.096 21.096 0 47.118 0c26.023 0 47.119 21.096 47.119 47.118 0 26.023-21.096 47.119-47.119 47.119C21.096 94.237 0 73.14 0 47.118z" fill="#1b1b1b"/><path d="M12.268 50.579c0-15.947 12.927-28.874 28.874-28.874 15.946 0 28.873 12.927 28.873 28.874 0 15.946-12.927 28.873-28.873 28.873-15.947 0-28.874-12.927-28.874-28.873z" fill="#fff"/><path d="M27.858 45.024c0-4.413 4.091-7.99 9.138-7.99s9.138 3.577 9.138 7.99-4.091 7.99-9.138 7.99-9.138-3.577-9.138-7.99zM27.672 61.47c0-4.412 4.091-7.99 9.138-7.99s9.138 3.578 9.138 7.99c0 4.413-4.091 7.99-9.138 7.99s-9.138-3.577-9.138-7.99z" fill="none" stroke="#000" stroke-width="4.5"/></g></svg>