<svg xmlns="http://www.w3.org/2000/svg" width="94.237" height="94.237"><g data-paper-data="{&quot;isPaintingLayer&quot;:true}" stroke-miterlimit="10" style="mix-blend-mode:normal"><path d="M0 47.118C0 21.096 21.096 0 47.118 0c26.023 0 47.119 21.096 47.119 47.118 0 26.023-21.096 47.119-47.119 47.119C21.096 94.237 0 73.14 0 47.118z" fill="#1b1b1b"/><path d="M12.268 50.579c0-15.947 12.927-28.874 28.874-28.874 15.946 0 28.873 12.927 28.873 28.874 0 15.946-12.927 28.873-28.873 28.873-15.947 0-28.874-12.927-28.874-28.873z" fill="#fff"/><g fill="none" stroke="#000" stroke-width="4"><path d="M18.937 47.321l6.808-8.923M19.343 47.464L31.42 49.19M30.494 38.8l-2.947 19.456" stroke-linecap="round"/><path d="M47.86 51.58c-.82 5.569-4.297 9.67-7.767 9.158-3.47-.51-5.618-5.44-4.798-11.008.82-5.57 4.298-9.67 7.767-9.16 3.47.511 5.618 5.44 4.798 11.01z"/><path d="M51.71 52.752l6.81-8.924M52.117 52.895l12.077 1.725M63.267 44.231L60.32 63.687" stroke-linecap="round"/></g></g></svg>