<svg xmlns="http://www.w3.org/2000/svg" width="94.237" height="94.237"><g data-paper-data="{&quot;isPaintingLayer&quot;:true}" stroke-miterlimit="10" style="mix-blend-mode:normal"><path d="M0 47.118C0 21.096 21.096 0 47.118 0c26.023 0 47.119 21.096 47.119 47.118 0 26.023-21.096 47.119-47.119 47.119C21.096 94.237 0 73.14 0 47.118z" fill="#1b1b1b"/><path d="M12.268 50.579c0-15.947 12.927-28.874 28.874-28.874 15.946 0 28.873 12.927 28.873 28.874 0 15.946-12.927 28.873-28.873 28.873-15.947 0-28.874-12.927-28.874-28.873z" fill="#fff"/><path d="M46.244 52.943c-.502 4.9-3.383 8.618-6.435 8.305-3.053-.312-5.12-4.537-4.62-9.437.502-4.9 3.383-8.618 6.436-8.305 3.052.312 5.12 4.537 4.619 9.437z" fill="none" stroke="#000" stroke-width="4"/><path d="M21.24 41.466l7.622.237M20.451 49.911l.43-7.44M21.738 49.927s3.524-1.251 5.65.144c1.847 1.212 2.407 4.987 1.571 6.237-.748 1.12-1.756 3.16-3.317 3.59-2.893.793-6.29-1.699-6.29-1.699" fill="none" stroke="#000" stroke-width="4" stroke-linecap="round"/><path d="M62.137 54.155c-.501 4.9-3.382 8.619-6.435 8.306-3.052-.312-5.12-4.537-4.619-9.437.502-4.9 3.383-8.618 6.435-8.306 3.053.313 5.12 4.538 4.62 9.437z" fill="none" stroke="#000" stroke-width="4"/></g></svg>