<svg version="1.1" xmlns="http://www.w3.org/2000/svg" xmlns:xlink="http://www.w3.org/1999/xlink" width="94.23678" height="94.23678" viewBox="0,0,94.23678,94.23678"><g transform="translate(-192.53667,-132.19301)"><g data-paper-data="{&quot;isPaintingLayer&quot;:true}" fill-rule="nonzero" stroke-linejoin="miter" stroke-miterlimit="10" stroke-dasharray="" stroke-dashoffset="0" style="mix-blend-mode: normal"><path d="M192.53668,179.3114c0,-26.02277 21.09562,-47.11839 47.11839,-47.11839c26.02277,0 47.11839,21.09562 47.11839,47.11839c0,26.02277 -21.09562,47.11839 -47.11839,47.11839c-26.02277,0 -47.11839,-21.09562 -47.11839,-47.11839z" fill="#1b1b1b" stroke="none" stroke-width="0" stroke-linecap="butt"/><path d="M204.80463,182.77159c0,-15.94654 12.92722,-28.87376 28.87376,-28.87376c15.94654,0 28.87376,12.92722 28.87376,28.87376c0,15.94654 -12.92722,28.87376 -28.87376,28.87376c-15.94654,0 -28.87376,-12.92722 -28.87376,-28.87376z" fill="#ffffff" stroke="none" stroke-width="0" stroke-linecap="butt"/><path d="M238.78028,185.13568c-0.50145,4.89955 -3.38249,8.61816 -6.43498,8.30575c-3.0525,-0.31241 -5.12054,-4.53753 -4.61909,-9.43709c0.50145,-4.89955 3.38249,-8.61817 6.43498,-8.30576c3.0525,0.31241 5.12054,4.53754 4.61909,9.43709z" fill="none" stroke="#000000" stroke-width="4" stroke-linecap="butt"/><path d="M213.77635,173.65905l7.62275,0.23685" fill="none" stroke="#000000" stroke-width="4" stroke-linecap="round"/><path d="M212.98798,182.10417l0.42978,-7.43959" fill="none" stroke="#000000" stroke-width="4" stroke-linecap="round"/><path d="M214.27465,182.12021c0,0 3.52441,-1.2512 5.65018,0.14396c1.8465,1.21188 2.40654,4.98724 1.57126,6.23688c-0.74888,1.12037 -1.75606,3.16013 -3.31779,3.58906c-2.89234,0.79439 -6.29021,-1.69806 -6.29021,-1.69806" fill="none" stroke="#000000" stroke-width="4" stroke-linecap="round"/><path d="M254.67387,186.34849c-0.50145,4.89956 -3.38248,8.61817 -6.43498,8.30576c-3.0525,-0.31241 -5.12054,-4.53754 -4.61909,-9.43709c0.50145,-4.89956 3.38248,-8.61817 6.43498,-8.30576c3.0525,0.31241 5.12054,4.53754 4.61909,9.43709z" fill="none" stroke="#000000" stroke-width="4" stroke-linecap="butt"/></g></g></svg>