<svg version="1.1" xmlns="http://www.w3.org/2000/svg" xmlns:xlink="http://www.w3.org/1999/xlink" width="94.23678" height="94.23678" viewBox="0,0,94.23678,94.23678"><g transform="translate(-192.53667,-132.19301)"><g data-paper-data="{&quot;isPaintingLayer&quot;:true}" fill-rule="nonzero" stroke-linejoin="miter" stroke-miterlimit="10" stroke-dasharray="" stroke-dashoffset="0" style="mix-blend-mode: normal"><path d="M192.53668,179.3114c0,-26.02277 21.09562,-47.11839 47.11839,-47.11839c26.02277,0 47.11839,21.09562 47.11839,47.11839c0,26.02277 -21.09562,47.11839 -47.11839,47.11839c-26.02277,0 -47.11839,-21.09562 -47.11839,-47.11839z" fill="#1b1b1b" stroke="none" stroke-width="0" stroke-linecap="butt"/><path d="M204.80463,182.77159c0,-15.94654 12.92722,-28.87376 28.87376,-28.87376c15.94654,0 28.87376,12.92722 28.87376,28.87376c0,15.94654 -12.92722,28.87376 -28.87376,28.87376c-15.94654,0 -28.87376,-12.92722 -28.87376,-28.87376z" fill="#ffffff" stroke="none" stroke-width="0" stroke-linecap="butt"/><g fill="none" stroke="#000000" stroke-width="4"><path d="M211.47369,179.51427l6.80836,-8.92348" stroke-linecap="round"/><path d="M211.87967,179.65731l12.07745,1.72528" stroke-linecap="round"/><path d="M223.03028,170.99373l-2.94698,19.45564" stroke-linecap="round"/><path d="M240.39687,183.77236c-0.8199,5.56918 -4.2973,9.6698 -7.76699,9.15899c-3.46969,-0.51081 -5.61777,-5.43962 -4.79787,-11.0088c0.8199,-5.56918 4.2973,-9.6698 7.76699,-9.15899c3.46969,0.51081 5.61777,5.43962 4.79787,11.0088z" stroke-linecap="butt"/><path d="M244.24755,184.94474l6.80836,-8.92348" stroke-linecap="round"/><path d="M244.65354,185.08779l12.07745,1.72528" stroke-linecap="round"/><path d="M255.80414,176.42421l-2.94698,19.45564" stroke-linecap="round"/></g></g></g></svg>