<svg version="1.1" xmlns="http://www.w3.org/2000/svg" xmlns:xlink="http://www.w3.org/1999/xlink" width="94.23678" height="94.23678" viewBox="0,0,94.23678,94.23678"><g transform="translate(-192.53667,-132.19301)"><g data-paper-data="{&quot;isPaintingLayer&quot;:true}" fill-rule="nonzero" stroke-linecap="butt" stroke-linejoin="miter" stroke-miterlimit="10" stroke-dasharray="" stroke-dashoffset="0" style="mix-blend-mode: normal"><path d="M192.53667,179.3114c0,-26.02277 21.09562,-47.11839 47.11839,-47.11839c26.02277,0 47.11839,21.09562 47.11839,47.11839c0,26.02277 -21.09562,47.11839 -47.11839,47.11839c-26.02277,0 -47.11839,-21.09562 -47.11839,-47.11839z" fill="#1b1b1b" stroke="none" stroke-width="0"/><path d="M204.80462,182.77159c0,-15.94654 12.92722,-28.87376 28.87376,-28.87376c15.94654,0 28.87376,12.92722 28.87376,28.87376c0,15.94654 -12.92722,28.87376 -28.87376,28.87376c-15.94654,0 -28.87376,-12.92722 -28.87376,-28.87376z" fill="#ffffff" stroke="none" stroke-width="0"/><path d="M220.39463,177.21697c0,-4.41279 4.09129,-7.99005 9.13816,-7.99005c5.04687,0 9.13816,3.57726 9.13816,7.99005c0,4.41279 -4.09129,7.99005 -9.13816,7.99005c-5.04687,0 -9.13816,-3.57727 -9.13816,-7.99005z" fill="none" stroke="#000000" stroke-width="4.5"/><path d="M220.20861,193.66356c0,-4.41279 4.09129,-7.99005 9.13816,-7.99005c5.04687,0 9.13816,3.57727 9.13816,7.99005c0,4.41279 -4.09129,7.99005 -9.13816,7.99005c-5.04687,0 -9.13816,-3.57726 -9.13816,-7.99005z" fill="none" stroke="#000000" stroke-width="4.5"/></g></g></svg>